<?xml version="1.0" standalone="no"?>
<!DOCTYPE svg PUBLIC "-//W3C//DTD SVG 20010904//EN"
 "http://www.w3.org/TR/2001/REC-SVG-20010904/DTD/svg10.dtd">
<svg version="1.0" xmlns="http://www.w3.org/2000/svg"
 width="520.000000pt" height="520.000000pt" viewBox="0 0 520.000000 520.000000"
 preserveAspectRatio="xMidYMid meet">
<metadata>
Created by potrace 1.11, written by Peter Selinger 2001-2013
</metadata>
<g transform="translate(0.000000,520.000000) scale(0.100000,-0.100000)"
fill="#000000" stroke="none">
<path d="M2348 3868 c-2 -7 -3 -338 -3 -735 1 -499 -2 -723 -9 -724 -6 0 -75
-1 -154 -2 -88 -1 -141 -6 -141 -12 1 -5 7 -19 14 -30 7 -11 108 -184 225
-385 211 -361 317 -541 324 -547 2 -2 37 54 78 124 41 70 130 223 198 338 68
116 144 245 169 288 25 43 55 93 65 110 10 18 29 51 42 73 l23 41 -142 1 c-78
0 -149 1 -157 1 -14 1 -16 81 -15 719 0 394 -1 725 -3 735 -4 16 -25 17 -257
17 -194 0 -254 -3 -257 -12z"/>
<path d="M1000 3516 c-76 -21 -123 -48 -180 -106 -60 -59 -94 -121 -111 -199
-6 -31 -9 -261 -7 -647 l3 -599 32 -62 c58 -111 130 -175 239 -212 57 -19 84
-20 702 -21 l644 0 -33 60 -33 59 -616 3 -615 3 -45 23 c-65 34 -99 69 -131
137 l-29 59 0 582 c0 667 -3 641 85 729 86 87 67 85 740 85 l583 0 -1 60 -1
60 -591 -1 c-436 0 -602 -4 -635 -13z"/>
<path d="M2983 3470 l1 -60 581 0 c521 -1 585 -3 627 -18 64 -23 130 -81 159
-139 l24 -48 3 -591 c2 -543 1 -595 -15 -639 -24 -63 -69 -114 -134 -150 l-54
-30 -610 -5 -610 -5 -33 -55 -33 -55 618 -3 c379 -1 638 2 671 8 105 19 199
83 259 177 64 100 64 105 61 770 l-3 598 -33 70 c-51 108 -126 176 -238 214
-56 19 -84 20 -650 21 l-592 0 1 -60z"/>
<path d="M1367 3335 c-130 -35 -251 -155 -284 -281 -9 -37 -10 -871 0 -904 30
-109 105 -203 202 -252 85 -44 119 -47 532 -48 216 0 393 2 393 6 0 3 -15 30
-32 60 l-33 54 -361 0 c-385 0 -401 2 -476 50 -41 28 -92 101 -108 155 -8 28
-10 162 -8 445 3 395 4 406 25 451 13 26 44 65 69 88 79 69 97 71 545 74 l394
2 1 45 c0 25 -2 51 -4 58 -6 18 -786 15 -855 -3z"/>
<path d="M2989 3348 c-1 -2 -2 -29 -4 -60 l-2 -57 396 0 c466 -1 473 -2 556
-84 85 -86 85 -86 85 -547 0 -442 -1 -453 -66 -529 -40 -47 -105 -87 -149 -95
-16 -2 -190 -5 -386 -5 l-355 -1 -25 -42 c-49 -87 -88 -79 354 -78 413 1 447
4 532 48 55 28 127 97 159 153 55 96 56 108 53 569 l-2 425 -27 57 c-36 78
-72 123 -133 168 -101 75 -100 74 -567 78 -230 2 -419 2 -419 0z"/>
<path d="M1747 3173 c-1 -1 -14 -4 -27 -6 -61 -11 -90 -20 -101 -33 -6 -8 -18
-14 -26 -14 -7 0 -16 -7 -19 -15 -4 -8 -11 -15 -17 -15 -15 0 -84 -77 -106
-120 -43 -83 -48 -122 -46 -390 2 -264 4 -278 49 -366 18 -35 106 -133 106
-118 0 5 5 1 11 -9 6 -9 14 -15 20 -12 5 4 12 -1 15 -9 3 -9 10 -13 15 -10 5
3 9 1 9 -4 0 -21 121 -36 301 -37 l186 -2 -24 44 c-13 25 -29 50 -36 57 -8 8
-60 12 -162 13 -129 1 -157 4 -198 22 -26 11 -48 19 -50 18 -2 -2 -51 48 -77
80 -21 26 -39 69 -47 111 -7 45 -8 425 -1 467 8 43 39 115 49 115 5 0 8 3 6 8
-7 23 104 96 166 108 18 4 133 7 257 7 l226 1 -1 56 0 55 -238 0 c-131 0 -239
0 -240 -2z"/>
<path d="M2986 3131 c1 -25 2 -51 3 -56 1 -7 70 -11 204 -11 111 0 221 -3 244
-7 93 -14 166 -72 210 -167 25 -54 25 -60 26 -275 0 -121 -3 -237 -7 -258 -13
-79 -74 -160 -148 -198 -48 -25 -126 -34 -260 -33 -59 1 -105 -2 -102 -7 3 -5
1 -9 -4 -9 -9 0 -37 -50 -34 -62 1 -5 -2 -8 -7 -8 -5 0 -11 -6 -14 -14 -4 -11
27 -13 181 -11 190 3 215 5 251 25 12 6 21 7 21 3 0 -4 4 -3 8 2 4 6 19 16 34
24 32 16 125 101 112 101 -5 0 -4 4 1 8 15 10 58 72 50 72 -3 0 1 13 9 29 9
16 13 31 10 34 -3 3 -2 12 2 19 14 21 13 482 -1 543 -14 58 -53 135 -69 135
-5 0 -6 3 -3 6 8 9 -48 64 -98 97 -84 55 -110 60 -375 62 l-245 2 1 -46z"/>
</g>
</svg>
